@startuml thermodynamics_module_class_diagram
skinparam linetype ortho

!include ./thermo-packages/ideal-eos-module.puml
!include ./thermo-packages/activity-eos-module.puml
!include ./thermo-packages/cubic-eos-module.puml

!include ./thermo-methods/base-thermo-methods-module.puml
!include ./thermo-methods/bulk-thermo-methods-module.puml


enum ThermodynamicConstants {
    + UniversalGasConstant
    + StandardTemperature
    + StandardPressure
    + AvogadroNumber
    --Public Methods--
    + fn value(&self) : Box<dyn std::any::Any> {}
}

enum EOSParams<T> {
    + Single: Vec<T>
    + Pair: Vec<Vec<T>>
    + Associated: Vec<Vec<T>>
}


BaseEOSModel --> ThermodynamicConstants
BaseEOSModel --> EOSParams
BaseEOSModel --> BaseThermoSupportingMethods

BaseThermoSupportingMethods --> ThermodynamicConstants


@enduml
